<svg width="390" height="1428" viewBox="0 0 390 1428" fill="none" xmlns="http://www.w3.org/2000/svg">
<mask id="mask0_115_2642" style="mask-type:luminance" maskUnits="userSpaceOnUse" x="0" y="0" width="390" height="1428">
<path d="M390 0H0V1428H390V0Z" fill="white"/>
</mask>
<g mask="url(#mask0_115_2642)">
<path d="M390 0H0V1428H390V0Z" fill="url(#paint0_linear_115_2642)"/>
<path d="M353.878 900.5C408.763 900.5 453.257 944.993 453.257 999.878C453.257 1054.76 408.763 1099.26 353.878 1099.26C298.993 1099.26 254.5 1054.76 254.5 999.878C254.5 944.993 298.993 900.5 353.878 900.5Z" stroke="#F0F0F0"/>
<path d="M367.122 906.872C420.317 906.872 463.439 949.994 463.439 1003.19C463.439 1056.38 420.317 1099.51 367.122 1099.51C313.927 1099.51 270.805 1056.38 270.805 1003.19C270.805 949.994 313.927 906.872 367.122 906.872Z" stroke="#D0104C" stroke-width="0.5"/>
<path d="M362.706 901.354C417.729 901.354 462.335 945.958 462.335 1000.98C462.335 1056 417.729 1100.61 362.706 1100.61C307.683 1100.61 263.078 1056 263.078 1000.98C263.078 945.959 307.683 901.354 362.706 901.354Z" stroke="#D0104C" stroke-width="0.5"/>
<path d="M367.122 909.079C422.145 909.079 466.751 953.684 466.751 1008.71C466.751 1063.73 422.145 1108.34 367.122 1108.34C312.099 1108.34 267.494 1063.73 267.494 1008.71C267.494 953.684 312.099 909.079 367.122 909.079Z" stroke="#D0104C" stroke-width="0.5"/>
<path d="M371.014 132.6C439.725 132.6 495.414 187.631 495.414 255.5C495.414 323.369 439.725 378.4 371.014 378.4C302.303 378.4 246.613 323.369 246.613 255.5C246.613 187.631 302.303 132.6 371.014 132.6Z" stroke="#F0F0F0" stroke-width="1.2"/>
<path d="M383.514 132.6C450.285 132.6 504.414 186.729 504.414 253.5C504.414 320.271 450.285 374.4 383.514 374.4C316.742 374.4 262.613 320.271 262.613 253.5C262.613 186.729 316.742 132.6 383.514 132.6Z" stroke="#F0F0F0" stroke-width="1.2"/>
<path d="M387.014 133.6C452.404 133.6 505.414 186.609 505.414 252C505.414 317.391 452.404 370.4 387.014 370.4C321.623 370.4 268.613 317.391 268.613 252C268.613 186.609 321.623 133.6 387.014 133.6Z" stroke="#F0F0F0" stroke-width="1.2"/>
<path d="M464.982 330.394C425.892 376.98 356.438 383.057 309.852 343.966C263.266 304.876 257.19 235.422 296.28 188.836C335.37 142.251 404.824 136.174 451.41 175.264" stroke="#D0104C" stroke-width="0.5"/>
<path d="M54.2041 632.35C100.842 632.35 138.65 670.158 138.65 716.796C138.65 763.434 100.842 801.242 54.2041 801.242C7.56591 801.242 -30.2422 763.434 -30.2422 716.796C-30.242 670.158 7.566 632.35 54.2041 632.35Z" stroke="#D0104C" stroke-width="0.7"/>
<path d="M51.1611 636.913C97.7994 636.913 135.607 674.721 135.607 721.359C135.607 767.997 97.7995 805.805 51.1611 805.805C4.52296 805.805 -33.2852 767.997 -33.2852 721.359C-33.285 674.721 4.52305 636.913 51.1611 636.913Z" stroke="#D0104C" stroke-width="0.7"/>
<path d="M42.7959 636.913C89.4342 636.913 127.242 674.721 127.242 721.359C127.242 767.997 89.4342 805.805 42.7959 805.805C-3.8423 805.805 -41.6504 767.997 -41.6504 721.359C-41.6502 674.721 -3.84221 636.913 42.7959 636.913Z" stroke="#D0104C" stroke-width="0.7"/>
<path d="M-29.0004 437.6C54.6155 437.6 122.4 505.384 122.4 589C122.4 672.616 54.6155 740.4 -29.0004 740.4C-112.616 740.4 -180.4 672.616 -180.4 589C-180.4 505.384 -112.616 437.6 -29.0004 437.6Z" stroke="#F0F0F0" stroke-width="1.2"/>
<path d="M-35.5004 443.6C44.5257 443.6 109.4 508.474 109.4 588.5C109.4 668.526 44.5257 733.4 -35.5004 733.4C-115.526 733.4 -180.4 668.526 -180.4 588.5C-180.4 508.474 -115.526 443.6 -35.5004 443.6Z" stroke="#F0F0F0" stroke-width="1.2"/>
<path d="M-50.0004 443.6C27.5404 443.6 90.4 506.459 90.4 584C90.4 661.541 27.5404 724.4 -50.0004 724.4C-127.541 724.4 -190.4 661.541 -190.4 584C-190.4 506.459 -127.541 443.6 -50.0004 443.6Z" stroke="#F0F0F0" stroke-width="1.2"/>
<path d="M-29.5004 441.6C50.5257 441.6 115.4 506.474 115.4 586.5C115.4 666.526 50.5257 731.4 -29.5004 731.4C-109.526 731.4 -174.4 666.526 -174.4 586.5C-174.4 506.474 -109.526 441.6 -29.5004 441.6Z" stroke="#F0F0F0" stroke-width="1.2"/>
<path d="M12.4004 304V54" stroke="url(#paint1_linear_115_2642)" stroke-width="1.2"/>
<path d="M-3 88.3999H157" stroke="url(#paint2_linear_115_2642)" stroke-width="1.2"/>
<path d="M375.6 841V1228" stroke="url(#paint3_linear_115_2642)" stroke-width="1.2"/>
<path d="M390 1194.6H90" stroke="url(#paint4_linear_115_2642)" stroke-width="1.2"/>
<path d="M407 137.5C407 156.002 392.002 171 373.5 171C354.998 171 340 156.002 340 137.5C340 118.998 354.998 104 373.5 104C392.002 104 407 118.998 407 137.5Z" fill="#D0104C" fill-opacity="0.54"/>
</g>
<defs>
<linearGradient id="paint0_linear_115_2642" x1="195" y1="1428" x2="195" y2="0" gradientUnits="userSpaceOnUse">
<stop offset="0.870192" stop-color="#F3C623"/>
<stop offset="1" stop-color="#F0F0F0"/>
</linearGradient>
<linearGradient id="paint1_linear_115_2642" x1="-nan" y1="-nan" x2="-nan" y2="-nan" gradientUnits="userSpaceOnUse">
<stop offset="0.740385" stop-color="#F0F0F0"/>
<stop offset="1" stop-color="#F0F0F0" stop-opacity="0.3"/>
</linearGradient>
<linearGradient id="paint2_linear_115_2642" x1="-nan" y1="-nan" x2="-nan" y2="-nan" gradientUnits="userSpaceOnUse">
<stop offset="0.653846" stop-color="#F0F0F0"/>
<stop offset="1" stop-color="#F0F0F0" stop-opacity="0.3"/>
</linearGradient>
<linearGradient id="paint3_linear_115_2642" x1="-nan" y1="-nan" x2="-nan" y2="-nan" gradientUnits="userSpaceOnUse">
<stop offset="0.740385" stop-color="#F0F0F0"/>
<stop offset="1" stop-color="#F0F0F0" stop-opacity="0.3"/>
</linearGradient>
<linearGradient id="paint4_linear_115_2642" x1="-nan" y1="-nan" x2="-nan" y2="-nan" gradientUnits="userSpaceOnUse">
<stop offset="0.653846" stop-color="#F0F0F0"/>
<stop offset="1" stop-color="#F0F0F0" stop-opacity="0.3"/>
</linearGradient>
</defs>
</svg>
